<svg width="720" height="720" viewBox="0 0 720 720" fill="none" xmlns="http://www.w3.org/2000/svg">
<path d="M166.258 191.428C166.311 178.412 168.245 165.47 172 153C138.714 183.095 113.178 220.689 97.5373 262.624C81.8966 304.559 76.6075 349.612 82.1139 394C87.4875 382.057 94.5665 370.947 103.132 361.013C102.576 298.71 125.037 238.369 166.258 191.428Z" fill="#3C2A5D"/>
<path d="M637.884 325C632.347 337.396 624.997 348.902 616.072 359.142C616.147 420.63 594.033 480.089 553.779 526.637C553.855 540.302 551.908 553.903 548 567C581.29 536.783 606.828 499.034 622.468 456.924C638.109 414.814 643.395 369.572 637.882 325H637.884Z" fill="#3C2A5D"/>
<path d="M606.597 348.753C625.808 325.13 634.031 301.798 628.112 281.379C628.039 281.088 627.942 280.821 627.845 280.53L628.403 280.364C608.637 213.612 564.721 156.632 505.232 120.551C512.593 135.824 517.553 152.143 519.939 168.932C520.126 170.097 520.344 171.221 520.516 172.403C522.96 190.405 523.807 208.588 523.048 226.74C517.009 226.181 510.944 225.793 504.856 225.574C506.991 158.977 490.836 109.837 457.508 97.3574C424.252 84.8756 380.421 111.439 338.822 163.202C334.989 160.14 325.19 152.856 324.098 152.082C342.996 120.808 392.198 89.6221 406.206 83.8316C356.005 75.4102 304.458 80.9316 257.175 99.795C221.816 113.896 206.6 126.016 205.703 126.689C172.384 151.618 173.347 219.801 203.086 301.035C125.053 343.791 78.9174 396.184 90.8758 437.459C91.6035 439.984 101.646 505.901 215.262 599.447C195.942 562.046 196.997 488.226 197.046 486.694C180.277 484.657 162.359 479.949 152.385 474.399C124.284 458.758 116.638 436.866 116.391 435.57C108.18 392.295 168.336 336.543 260.937 296.422L261.446 296.204C261.834 296.058 262.222 295.888 262.586 295.743C259.336 303.585 256.158 311.548 253.126 319.682C238.665 357.823 227.918 397.273 221.035 437.483L221.011 437.507C218.277 452.701 216.437 468.043 215.502 483.452C215.393 485.29 209.839 551.302 235.863 599.678C241.525 610.198 253.551 618.696 261.24 621.682C294.251 634.499 338.642 607.989 380.605 556.784C385.745 560.957 390.854 564.873 395.933 568.533C384.97 582.313 372.839 595.12 359.675 606.811C358.765 607.605 357.853 608.324 356.943 609.096C344.205 620.271 329.819 629.41 314.294 636.191C382.903 647.636 453.311 633.079 511.774 595.361L511.653 595.271C528.778 583.496 537.534 560.625 538.48 530.641C539.45 499.685 532.077 461.033 516.965 418.982C556.071 397.117 587.071 372.789 606.597 348.753ZM457.615 123.494C485.097 133.788 499.166 172.221 499.263 225.368C468.757 224.764 438.264 227.097 408.204 232.336C400.588 219.711 363.015 183.899 355.786 177.49L355.762 177.466C391.831 134.468 429.113 112.811 457.615 123.494ZM222.304 290.994C197.878 220.196 198.266 161.806 228.247 141.096H228.271C228.635 140.853 229.023 140.562 229.411 140.319C238.507 134.492 249.592 132.404 262.084 133.666C283.333 135.852 308.656 147.772 335.338 167.56C311.529 198.758 291.217 232.482 274.77 268.123C274.77 268.147 274.746 268.147 274.746 268.169C274.528 268.244 234.553 284.924 222.304 290.994ZM254.356 383.455C259.341 364.93 265.427 345.932 272.611 326.757C278.021 312.335 283.786 298.431 289.906 285.045C294.127 275.844 298.485 266.933 302.98 258.314C316.898 231.035 333.533 205.233 352.633 181.302C359.692 187.274 366.783 193.749 373.906 200.725C380.455 207.134 387.029 213.957 393.554 221.143C395.421 223.353 399.011 227.771 403.353 233.137C407.962 238.818 413.371 245.568 418.44 251.905C427.585 263.364 435.59 273.44 435.59 273.44C441.654 281.938 447.597 290.735 453.418 299.831C477.211 336.483 496.665 375.779 511.391 416.928C490.87 428.514 469.579 438.678 447.669 447.35H447.652C445.979 448.03 444.329 448.685 442.583 449.314C426.166 455.745 408.852 461.618 390.861 466.887C364.362 474.519 337.399 480.43 310.138 484.582C286.154 488.237 261.918 489.976 237.658 489.782C237.876 483.331 238.522 477.065 238.74 471.087C239.485 450.652 250.708 397.017 254.356 383.455ZM390.269 535.982C370.87 520.215 352.865 502.802 336.454 483.938C354.501 480.345 372.984 475.878 391.686 470.439C408.439 465.561 424.604 460.188 440.181 454.323C426.278 483.125 409.559 510.479 390.269 535.982ZM278.615 601.637C256.576 593.382 243.271 567.093 238.888 529.675C238.854 529.371 238.822 529.07 238.791 528.767C238.687 527.834 238.607 526.87 238.512 525.924C237.597 515.592 237.264 505.216 237.513 494.847C246.148 494.822 255.511 494.507 264.752 493.706H264.777C280.058 492.662 295.97 490.865 312.319 488.243C331.618 511.745 352.99 533.462 376.176 553.131C341.415 592.508 305.928 611.881 278.615 601.637ZM523.931 544.66C520.559 555.07 513.805 564.052 504.745 570.177C496.533 575.226 486.984 577.664 477.359 577.169C453.928 576.538 424.868 562.917 394.233 539.124C413.911 511.844 431.01 482.79 445.309 452.339H445.326C468.501 443.484 491.061 433.093 512.856 421.238C529.971 472.041 534.216 516.326 523.931 544.66ZM456.62 298.035C450.701 288.784 444.637 279.809 438.428 271.109C438.404 271.061 438.379 271.036 438.355 270.988C433.601 264.554 428.507 257.851 423.316 251.225C432.218 250.035 440.611 249.161 448.421 248.506V248.578C512.798 243.359 565.361 252.293 591.291 273.901C598.826 279.837 604.384 287.922 607.228 297.088C610.025 307.654 609.197 318.855 604.875 328.893C594.056 357.008 561.723 387.599 515.417 414.622C500.018 373.776 480.308 334.692 456.62 298.035Z" fill="#3C2A5D"/>
</svg>
